<svg width="24" height="24" viewBox="0 0 24 24" fill="none" xmlns="http://www.w3.org/2000/svg">
<rect width="24" height="24" rx="12" fill="white"/>
<path d="M17.5424 7.05909C16.5071 6.56829 15.4044 6.20665 14.2428 6C14.0997 6.25831 13.9313 6.61134 13.8219 6.89549C12.5929 6.70606 11.3724 6.70606 10.1687 6.89549C10.0508 6.61134 9.88248 6.25831 9.73938 6C8.57776 6.20665 7.47506 6.56829 6.43971 7.05909C4.35216 10.2794 3.78818 13.4222 4.06596 16.5134C5.45485 17.5725 6.79324 18.2097 8.11479 18.6316C8.44308 18.1752 8.72928 17.6844 8.9818 17.1764C8.502 16.9956 8.04745 16.7631 7.61816 16.4962C7.73601 16.4101 7.84543 16.3154 7.95486 16.2293C10.5896 17.4864 13.4431 17.4864 16.0441 16.2293C16.1535 16.324 16.263 16.4101 16.3808 16.4962C15.9515 16.7631 15.4886 16.987 15.0172 17.1764C15.2697 17.6844 15.5559 18.1752 15.8842 18.6316C17.2057 18.2097 18.5525 17.5725 19.933 16.5134C20.2613 12.9228 19.369 9.81444 17.5593 7.05909H17.5424ZM9.33534 14.6191C8.54409 14.6191 7.89594 13.87 7.89594 12.9487C7.89594 12.0273 8.52725 11.2782 9.33534 11.2782C10.1434 11.2782 10.7832 12.0273 10.7747 12.9487C10.7747 13.8614 10.1434 14.6191 9.33534 14.6191ZM14.6468 14.6191C13.8556 14.6191 13.2074 13.87 13.2074 12.9487C13.2074 12.0273 13.8387 11.2782 14.6468 11.2782C15.4549 11.2782 16.0946 12.0273 16.0862 12.9487C16.0862 13.8614 15.4549 14.6191 14.6468 14.6191Z" fill="#18284A"/>
</svg>
