<svg width="24" height="24" viewBox="0 0 24 24" fill="none" xmlns="http://www.w3.org/2000/svg">
<rect width="24" height="24" rx="12" fill="white"/>
<path d="M15.8417 14.8131C15.8417 15.514 16.0408 15.7935 16.5617 15.7935C17.7225 15.7935 18.4617 14.3125 18.4617 11.8494C18.4617 8.08469 15.7217 6.28244 12.3008 6.28244C8.78167 6.28244 5.58083 8.64539 5.58083 13.111C5.58083 17.3763 8.38083 19.6992 12.6808 19.6992C14.1408 19.6992 15.1208 19.539 16.62 19.0384L16.9417 20.3792C15.4617 20.8607 13.88 21 12.6608 21C7.02083 21 4 17.8961 4 13.1101C4 8.2841 7.50083 5 12.3208 5C17.3408 5 20 8.00375 20 11.6884C20 14.8123 19.0208 17.1952 15.9408 17.1952C14.54 17.1952 13.6208 16.6345 13.5008 15.3922C13.1408 16.7739 12.1808 17.1952 10.88 17.1952C9.14 17.1952 7.68 15.8527 7.68 13.1502C7.68 10.4268 8.96083 8.74468 11.2608 8.74468C12.4808 8.74468 13.2408 9.22528 13.5792 9.98623L14.16 8.92491H15.84V14.8131H15.8417ZM13.3825 12.1698C13.3825 11.0693 12.5617 10.6078 11.8817 10.6078C11.1417 10.6078 10.3225 11.2078 10.3225 12.9708C10.3225 14.3725 10.9425 15.1535 11.8817 15.1535C12.5417 15.1535 13.3825 14.733 13.3825 13.5715V12.1698Z" fill="#18284A"/>
</svg>
