<svg width="142" height="32" viewBox="0 0 142 32" fill="none" xmlns="http://www.w3.org/2000/svg">
<g clip-path="url(#clip0_59_135)">
<path d="M87.7742 24.4797H87.7327C87.7507 24.4797 87.7631 24.4989 87.7811 24.503L87.795 24.5002L87.7742 24.4797ZM87.7811 24.503C87.5875 24.5043 87.1033 24.6027 86.5901 24.6027C84.9716 24.6027 84.4114 23.8701 84.4114 22.9159V16.5568H87.7106C87.8973 16.5568 88.0426 16.3928 88.0426 16.1699V12.7156C88.0426 12.5338 87.8766 12.3712 87.7106 12.3712H84.4128V8.08298C84.4128 7.92032 84.309 7.81916 84.1223 7.81916H79.6403C79.4522 7.81916 79.3498 7.92032 79.3498 8.08298V12.4942C79.3498 12.4942 77.0867 13.0423 76.9415 13.0628C76.8634 13.0815 76.7941 13.126 76.745 13.1888C76.696 13.2517 76.6701 13.3293 76.6717 13.4087V16.1713C76.6717 16.3955 76.8377 16.5568 77.0245 16.5568H79.3277V23.2221C79.3277 28.1801 82.8551 28.6872 85.2621 28.6872C86.3632 28.6872 87.6912 28.3428 87.8987 28.2402C88.0232 28.1992 88.0855 28.0571 88.0855 27.9149V24.8666C88.0871 24.7804 88.0574 24.6965 88.0018 24.63C87.9463 24.5636 87.8685 24.519 87.7825 24.5043L87.7811 24.503ZM136.956 20.0303C136.956 16.3531 135.442 15.8651 133.844 16.0278C132.599 16.1098 131.603 16.7181 131.603 16.7181V23.8701C131.603 23.8701 132.62 24.5617 134.134 24.6027C136.272 24.6629 136.956 23.9111 136.956 20.0303ZM142 19.7049C142 26.6751 139.697 28.6654 135.67 28.6654C132.267 28.6654 130.441 26.9799 130.441 26.9799C130.441 26.9799 130.358 27.9135 130.254 28.0366C130.192 28.1582 130.088 28.1979 129.964 28.1979H126.893C126.685 28.1979 126.497 28.0352 126.497 27.8534L126.539 5.27934C126.542 5.18816 126.58 5.10154 126.645 5.03742C126.711 4.9733 126.799 4.93658 126.891 4.93487H131.313C131.405 4.93658 131.493 4.9733 131.559 5.03742C131.624 5.10154 131.662 5.18816 131.665 5.27934V12.9398C131.665 12.9398 133.367 11.8626 135.857 11.8626L135.836 11.8216C138.326 11.8216 142 12.7375 142 19.7049ZM123.904 12.3712H119.546C119.318 12.3712 119.193 12.5338 119.193 12.7566V23.8099C119.193 23.8099 118.051 24.6027 116.496 24.6027C114.938 24.6027 114.482 23.9111 114.482 22.3883V12.7375C114.48 12.6458 114.442 12.5585 114.376 12.4938C114.31 12.4291 114.222 12.392 114.129 12.3903H109.689C109.596 12.3917 109.507 12.4284 109.441 12.4929C109.375 12.5573 109.337 12.6445 109.334 12.7361V23.1196C109.334 27.5896 111.888 28.7064 115.395 28.7064C118.279 28.7064 120.624 27.1412 120.624 27.1412C120.624 27.1412 120.729 27.934 120.79 28.0571C120.831 28.1582 120.978 28.2389 121.122 28.2389H123.904C123.95 28.2412 123.997 28.2339 124.041 28.2173C124.084 28.2008 124.124 28.1755 124.157 28.1429C124.19 28.1104 124.216 28.0713 124.233 28.0283C124.25 27.9853 124.258 27.9392 124.256 27.893L124.298 12.7156C124.298 12.5338 124.132 12.3712 123.904 12.3712ZM74.7185 12.3506H70.2988C70.1121 12.3506 69.9461 12.5338 69.9461 12.7566V27.6702C69.9461 28.0762 70.2158 28.2184 70.5686 28.2184H74.5525C74.9675 28.2184 75.0713 28.0352 75.0713 27.6702V12.6951C75.0684 12.6039 75.0302 12.5173 74.9646 12.4532C74.8989 12.3891 74.8108 12.3524 74.7185 12.3506ZM72.5398 5.48165C70.9421 5.48165 69.6763 6.72149 69.6763 8.28529C69.6763 9.8491 70.9421 11.0889 72.5398 11.0889C72.9115 11.0889 73.2796 11.0164 73.6229 10.8754C73.9662 10.7344 74.2779 10.5277 74.5401 10.2673C74.8024 10.007 75.0099 9.69792 75.1509 9.35801C75.2919 9.01811 75.3636 8.65402 75.3618 8.28666C75.3639 7.91908 75.2926 7.5547 75.1517 7.21447C75.0109 6.87425 74.8034 6.56489 74.5411 6.30421C74.2789 6.04352 73.967 5.83665 73.6236 5.69548C73.2801 5.55431 72.9118 5.48165 72.5398 5.48165ZM106.763 4.97314H102.382C102.289 4.97487 102.201 5.01177 102.135 5.07619C102.07 5.1406 102.032 5.22756 102.029 5.31898V13.6301H95.1611V5.31898C95.1586 5.22756 95.1206 5.1406 95.0549 5.07619C94.9892 5.01177 94.9009 4.97487 94.8083 4.97314H90.3873C90.2947 4.97487 90.2065 5.01177 90.1408 5.07619C90.0751 5.1406 90.037 5.22756 90.0345 5.31898V27.893C90.0345 28.0748 90.2213 28.2375 90.3873 28.2375H94.8083C94.9009 28.2358 94.9892 28.1989 95.0549 28.1345C95.1206 28.07 95.1586 27.9831 95.1611 27.8917V18.2409H102.031L101.989 27.8917C101.989 28.0748 102.155 28.2375 102.342 28.2375H106.762C106.854 28.2358 106.942 28.1989 107.008 28.1345C107.074 28.07 107.112 27.9831 107.114 27.8917V5.32035C107.112 5.22893 107.074 5.14197 107.008 5.07755C106.942 5.01314 106.854 4.97623 106.762 4.97451L106.763 4.97314ZM67.6014 14.9697V26.6327C67.6014 26.7147 67.5806 26.8555 67.4769 26.8965C67.4769 26.8965 64.8832 28.705 60.6074 28.705C55.4407 28.7064 49.3182 27.1207 49.3182 16.6771C49.3182 6.23348 54.6716 4.08188 59.9019 4.10102C64.4253 4.10102 66.2513 5.09617 66.5418 5.27934C66.6248 5.38186 66.6663 5.46251 66.6663 5.56367L65.7948 9.18066C65.7948 9.36383 65.6094 9.58664 65.3798 9.5265C64.6328 9.30232 63.5123 8.85669 60.8771 8.85669C57.8269 8.85669 54.5485 9.7083 54.5485 16.4338C54.5485 23.1592 57.6609 23.9521 59.9019 23.9521C61.8108 23.9521 62.4956 23.7279 62.4956 23.7279V19.0556H59.4454C59.2171 19.0556 59.0511 18.8916 59.0511 18.7098V14.9711C59.0511 14.7879 59.2171 14.6266 59.4454 14.6266H67.2058C67.4354 14.6266 67.6014 14.7866 67.6014 14.9697Z" fill="black"/>
<path d="M16.6076 0.00410519C12.6645 0.00226111 8.84942 1.38756 5.84565 3.91195C2.84188 6.43633 0.845566 9.93491 0.214203 13.7812C-0.417159 17.6275 0.357661 21.5703 2.39992 24.9035C4.44217 28.2367 7.61847 30.7427 11.36 31.9726C12.19 32.1243 12.495 31.6158 12.495 31.1832C12.495 30.7916 12.4784 29.4998 12.4722 28.1301C7.85334 29.1225 6.88018 26.1945 6.88018 26.1945C6.12489 24.2978 5.03761 23.7934 5.03761 23.7934C3.53119 22.7743 5.15173 22.7969 5.15173 22.7969C6.81793 22.9117 7.69564 24.4864 7.69564 24.4864C9.17717 26.9941 11.58 26.2683 12.5262 25.85C12.6756 24.7899 13.1051 24.0661 13.5802 23.656C9.89303 23.2418 6.017 21.8352 6.017 15.5485C6.017 13.7585 6.66646 12.2945 7.72677 11.1462C7.55455 10.732 6.98601 9.06503 7.88654 6.80543C7.88654 6.80543 9.28092 6.36459 12.4535 8.4868C13.8077 8.12348 15.2044 7.93803 16.6076 7.93523C18.0186 7.94138 19.44 8.12387 20.7659 8.4868C23.9343 6.36459 25.3266 6.80543 25.3266 6.80543C26.2292 9.06503 25.6628 10.7341 25.4906 11.1462C26.555 12.2945 27.1983 13.7585 27.1983 15.5485C27.1983 21.8496 23.3139 23.2357 19.6184 23.6416C20.2139 24.1502 20.7451 25.1487 20.7451 26.6784C20.7451 28.8723 20.7264 30.6398 20.7264 31.1791C20.7264 31.6158 21.0252 32.1264 21.8677 31.9665C25.6085 30.7351 28.7837 28.2281 30.8246 24.8943C32.8656 21.5606 33.639 17.6177 33.0064 13.7719C32.3738 9.92599 30.3765 6.4282 27.3722 3.9048C24.3679 1.3814 20.5526 -0.00281353 16.6097 4.29367e-06L16.6076 0.00410519Z" fill="black"/>
</g>
<defs>
<clipPath id="clip0_59_135">
<rect width="142" height="32" fill="white"/>
</clipPath>
</defs>
</svg>
