<svg width="24" height="24" viewBox="0 0 24 24" fill="none" xmlns="http://www.w3.org/2000/svg">
<rect width="24" height="24" rx="12" fill="white"/>
<path d="M19.5141 7.71636C19.4366 7.61385 19.354 7.51532 19.2665 7.42116C19.3547 7.18639 19.4216 6.94418 19.4665 6.69745C19.5984 5.79488 19.4832 4.87345 19.1332 4.03112C19.1332 4.03112 18.0667 3.69783 15.6194 5.34524C14.5803 5.05862 13.5071 4.91447 12.4293 4.91672C11.3483 4.91478 10.272 5.05892 9.22969 5.34524C6.78238 3.67878 5.71585 4.03112 5.71585 4.03112C5.36917 4.86429 5.25401 5.77565 5.38256 6.66888C5.42769 6.92587 5.49785 7.17784 5.59206 7.42116C5.50636 7.51639 5.42065 7.62114 5.34447 7.71636C4.63388 8.6077 4.25668 9.7191 4.27794 10.8588C4.27627 11.1291 4.28898 11.3993 4.31603 11.6682C4.62075 15.8867 7.42992 16.8676 10.1058 17.1723C9.72714 17.5246 9.47035 17.9881 9.37253 18.4959C9.28376 18.8346 9.2421 19.1839 9.24874 19.5339V20.7814C8.18316 20.8766 7.08996 20.7214 6.75096 19.771C6.38684 18.8615 5.78336 18.0675 5.00451 17.4732C4.94707 17.4433 4.89282 17.4075 4.84263 17.3666C4.77434 17.1867 4.65317 17.0318 4.49508 16.9221C4.337 16.8125 4.14941 16.7533 3.95703 16.7524H3.95227C3.70054 16.7524 3.45904 16.852 3.2806 17.0296C3.10215 17.2071 3.00127 17.4481 3.00001 17.6999C2.99715 18.4731 3.77134 18.973 4.08844 19.1425C4.45834 19.5163 4.75629 19.955 4.96738 20.4366C5.314 21.4108 6.32816 22.8916 9.22017 22.6992L9.22207 22.7925L9.22588 23.0477C9.22588 23.3003 9.32621 23.5425 9.50479 23.7211C9.68338 23.8997 9.92559 24 10.1781 24H14.6671C14.9196 24 15.1619 23.8997 15.3404 23.7211C15.519 23.5425 15.6194 23.3003 15.6194 23.0477C15.6194 23.0477 15.627 20.0386 15.627 19.5339C15.6336 19.1839 15.5919 18.8346 15.5032 18.4959L15.5013 18.4902L15.5051 18.4959C15.4965 18.4626 15.4841 18.4359 15.4746 18.4036C15.3686 17.9317 15.1231 17.5027 14.7699 17.1723L14.7814 17.1923L14.7623 17.1733C17.4382 16.8685 20.2283 15.8687 20.533 11.6692C20.5601 11.4003 20.5728 11.1301 20.5711 10.8598C20.588 9.72231 20.215 8.61239 19.5141 7.71636Z" fill="#18284A"/>
</svg>
